<svg  xmlns="http://www.w3.org/2000/svg"
                         viewBox="0 0 130.462 24"><g><path d="M 22.4 18.955 C 20.793 16.844 18.314 15.757 15.827 15.814 L 13.349 15.814 L 16.213 19.188 C 17.53 20.581 19.315 21.453 21.236 21.642 L 21.236 21.651 C 23.05 21.843 24.868 22.636 26.2 24 L 22.4 18.957 Z M 16.073 10.613 C 14.469 8.787 12.166 7.856 9.857 7.909 L 6.633 7.909 L 11.505 13.646 L 14.15 13.646 C 16.47 13.586 18.803 14.515 20.413 16.35 L 27.187 16.35 L 27.187 10.613 Z M 34.032 8.7 L 34.032 2.962 L 10.401 2.962 C 8.791 0.97 6.384 -0.055 3.969 0.002 L 0 0.002 L 4.791 5.742 L 8.184 5.742 C 10.466 5.681 12.742 6.585 14.349 8.363 L 14.637 8.7 Z" fill="#0c254e "></path><g transform="translate(41.928 6.474)"><path d="M 13.188 0.185 L 13.188 3.083 L 3.797 3.083 L 3.797 5.409 L 12.739 5.409 L 12.72 8.234 L 3.797 8.234 L 3.797 12.499 L 0 12.499 L 0 0.185 Z" fill="#0c254e "></path><path d="M 18.967 3.36 C 18.032 3.6 17.826 4.172 17.826 6.665 C 17.826 8.197 17.957 8.695 18.387 9.046 C 18.892 9.434 19.491 9.489 22.634 9.489 C 25.683 9.489 26.319 9.415 26.805 9.046 C 27.235 8.714 27.366 8.178 27.366 6.683 C 27.366 4.911 27.273 4.209 26.936 3.784 C 26.543 3.249 26.113 3.194 22.596 3.194 C 20.015 3.194 19.491 3.212 18.967 3.36 M 29.929 0.849 C 30.883 1.569 31.164 2.806 31.164 6.332 C 31.164 9.877 30.883 11.114 29.929 11.834 C 28.975 12.554 27.796 12.683 22.634 12.683 C 17.377 12.683 16.218 12.554 15.263 11.834 C 14.291 11.095 14.029 9.877 14.029 6.258 C 14.029 2.825 14.31 1.569 15.263 0.849 C 16.218 0.129 17.396 0 22.596 0 C 27.815 0 28.975 0.129 29.929 0.849" fill="#0c254e "></path><path d="M 41.807 6.295 C 43.678 6.258 43.678 6.258 43.939 6.111 C 44.276 5.908 44.388 5.557 44.388 4.744 C 44.388 3.932 44.257 3.581 43.883 3.415 C 43.603 3.286 43.565 3.286 41.807 3.268 L 36.457 3.268 L 36.457 6.295 Z M 32.66 0.184 L 41.844 0.184 C 46.147 0.184 46.147 0.184 46.951 0.665 C 47.905 1.237 48.186 2.049 48.186 4.191 C 48.186 5.982 47.998 6.664 47.381 7.181 C 47.007 7.477 46.652 7.624 45.866 7.735 C 47.793 7.957 48.129 8.511 48.055 11.354 L 48.055 12.498 L 44.313 12.498 L 44.313 11.852 C 44.313 9.471 44.182 9.341 41.825 9.378 L 36.457 9.378 L 36.457 12.498 L 32.66 12.498 Z" fill="#0c254e "></path><path d="M 53.273 0.185 L 53.273 5.852 C 53.31 7.791 53.31 7.809 53.404 8.308 C 53.61 9.286 54.339 9.489 57.575 9.489 C 60.194 9.489 60.98 9.379 61.391 8.935 C 61.691 8.622 61.765 8.289 61.84 7.218 C 61.859 6.757 61.878 6.129 61.878 5.852 L 61.878 0.185 L 65.675 0.185 L 65.675 5.852 C 65.619 8.64 65.6 8.843 65.488 9.711 C 65.282 11.114 64.328 12.092 62.907 12.388 C 61.784 12.609 60.531 12.683 57.632 12.683 C 52.862 12.683 51.365 12.425 50.43 11.446 C 49.831 10.837 49.626 10.117 49.532 8.437 C 49.495 7.92 49.495 7.92 49.476 5.852 L 49.476 0.185 Z" fill="#0c254e "></path><path d="M 74.261 0.185 L 77.965 8.178 L 81.687 0.185 L 88.533 0.185 L 88.533 12.499 L 84.792 12.499 L 84.886 3.286 L 84.25 3.286 L 79.554 12.499 L 76.393 12.499 L 71.698 3.286 L 71.025 3.286 L 71.118 12.499 L 67.377 12.499 L 67.377 0.185 Z" fill="#0c254e "></path></g></g></svg>