 <svg
                        xmlns="http://www.w3.org/2000/svg"
                        width="16"
                        height="16"
                        fill="none"
                        viewBox="0 0 24 24"
                      >
                        <path
                          fill="#0c254e"
                          d="M7.8 12h-.75.75Zm8.4 0h.75-.75ZM12 16.2v.75-.75Zm2.173 6.075.154.734-.154-.734Zm-4.346 0-.154.734.154-.734ZM2.276 8.032 1.58 7.75l.695.283Zm-.55 6.14-.735.155.734-.154ZM9.826 1.726 9.673.991l.154.734Zm4.346 0 .154-.734-.154.734ZM21.64 8.07l.218.718-.218-.718Zm-19.281 0-.218.717.218-.717Zm18.672.248A9.719 9.719 0 0 1 21.75 12h1.5a11.22 11.22 0 0 0-.83-4.248l-1.389.567ZM21.75 12c0 .693-.072 1.368-.209 2.018l1.468.31c.158-.752.241-1.53.241-2.328h-1.5Zm-.209 2.018a9.763 9.763 0 0 1-7.523 7.523l.31 1.468a11.263 11.263 0 0 0 8.68-8.682l-1.467-.309Zm-7.523 7.523A9.794 9.794 0 0 1 12 21.75v1.5c.797 0 1.576-.083 2.327-.241l-.309-1.468ZM12 21.75a9.794 9.794 0 0 1-2.018-.209l-.31 1.468c.752.158 1.53.241 2.328.241v-1.5ZM2.25 12a9.72 9.72 0 0 1 .72-3.684L1.58 7.749A11.22 11.22 0 0 0 .75 12h1.5Zm7.732 9.541a9.763 9.763 0 0 1-7.523-7.523l-1.468.31a11.263 11.263 0 0 0 8.682 8.68l.309-1.467Zm-7.523-7.523A9.794 9.794 0 0 1 2.25 12H.75c0 .797.083 1.576.241 2.327l1.468-.309Zm.51-5.702a9.77 9.77 0 0 1 7.013-5.857L9.672.991a11.27 11.27 0 0 0-8.09 6.758l1.388.567Zm7.013-5.857A9.794 9.794 0 0 1 12 2.25V.75c-.797 0-1.576.083-2.327.241l.309 1.468ZM12 2.25c.693 0 1.368.072 2.018.209l.31-1.468A11.294 11.294 0 0 0 12 .75v1.5Zm2.018.209a9.77 9.77 0 0 1 7.013 5.86l1.389-.567a11.27 11.27 0 0 0-8.093-6.76l-.309 1.467Zm-.56-.506c.29.908 1.364 4.403 1.803 7.615l1.487-.203c-.459-3.348-1.567-6.947-1.86-7.868l-1.43.456Zm1.803 7.615c.119.861.189 1.689.189 2.432h1.5c0-.832-.078-1.731-.202-2.635l-1.487.203Zm6.161-2.216c-1.153.35-3.319.964-5.554 1.377l.273 1.475c2.314-.427 4.54-1.06 5.717-1.416l-.436-1.436ZM15.868 8.73c-1.355.25-2.71.421-3.868.421v1.5c1.287 0 2.743-.188 4.14-.446l-.272-1.475ZM15.45 12c0 1.1-.155 2.38-.385 3.671l1.476.264c.239-1.333.409-2.71.409-3.935h-1.5Zm-.385 3.671c-.506 2.828-1.355 5.588-1.607 6.376l1.43.456c.257-.807 1.13-3.642 1.653-6.568l-1.476-.264Zm6.982-2.213c-.788.252-3.548 1.101-6.376 1.607l.264 1.476c2.926-.523 5.76-1.396 6.568-1.654l-.456-1.429Zm-6.376 1.607c-1.29.23-2.57.385-3.671.385v1.5c1.225 0 2.602-.17 3.935-.409l-.264-1.476ZM12 15.45c-1.1 0-2.38-.155-3.671-.385l-.264 1.476c1.333.239 2.71.409 3.935.409v-1.5Zm-3.671-.385c-2.828-.506-5.588-1.355-6.376-1.607l-.456 1.43c.807.257 3.642 1.13 6.568 1.653l.264-1.476ZM7.05 12c0 1.225.17 2.602.409 3.935l1.476-.264c-.23-1.29-.385-2.57-.385-3.671h-1.5Zm.409 3.935c.523 2.926 1.396 5.76 1.654 6.568l1.429-.456c-.252-.788-1.101-3.548-1.607-6.376l-1.476.264ZM9.113 1.497c-.294.921-1.402 4.52-1.86 7.868l1.485.203c.44-3.212 1.514-6.707 1.804-7.615l-1.43-.456Zm-1.86 7.868A19.75 19.75 0 0 0 7.05 12h1.5c0-.743.07-1.57.188-2.432l-1.486-.203ZM12 9.15c-1.158 0-2.513-.171-3.868-.421l-.273 1.475c1.398.258 2.854.446 4.141.446v-1.5Zm-3.868-.421c-2.236-.413-4.403-1.027-5.555-1.377L2.14 8.787c1.176.357 3.404.99 5.718 1.417l.273-1.475Zm13.248-1.36a.251.251 0 0 1 .042-.017l.436 1.436c.075-.023.146-.052.213-.087l-.691-1.332ZM1.884 8.672c.08.048.165.087.257.115l.436-1.435c.033.01.063.024.09.04l-.783 1.28Z"
                        />
                      </svg>